{"title":"Legend of the Guardians (2010) DVDRip XviD-MAX","uid":6011314,"size":1326927290,"categoryP":"video","categoryS":"movies","magnet":"?xt=urn:btih:f57fd4ebcea45cd1460191ef9c14896fcbb4b993&amp;dn=Legend+of+the+Guardians+%282010%29+DVDRip+XviD-MAX&amp;tr=udp%3A%2F%2Ftracker.openbittorrent.com%3A80&amp;tr=udp%3A%2F%2Fopen.demonii.com%3A1337&amp;tr=udp%3A%2F%2Ftracker.coppersurfer.tk%3A6969&amp;tr=udp%3A%2F%2Fexodus.desync.com%3A6969","seeders":8,"leechers":1,"uploader":"extremezone","files":-1,"time":1291421897,"description":"IF YOU WANT A PROPER SOURCE ENCODE (better as maxspeed release this time) TAKE &lt;a href=&quot;\nhttp://thepiratebay.se/torrent/6013267/Legend_Of_The_Guardians.2010.DvdRip.Xvid__1337x_-Noir&quot; rel=&quot;nofollow&quot; target=&quot;_NEW&quot;&gt;\nhttp://thepiratebay.se/torrent/6013267/Legend_Of_The_Guardians.2010.DvdRip.Xvid__1337x_-Noir&lt;/a&gt;\n &lt;a href=&quot;\nhttp://leetleech.org/images/49966936774964122204.jpg&quot; rel=&quot;nofollow&quot; target=&quot;_NEW&quot;&gt;\nhttp://leetleech.org/images/49966936774964122204.jpg&lt;/a&gt;\n\nScreens: &lt;a href=&quot;\nhttp://leetleech.org/images/47010064397467695100.jpg&quot; rel=&quot;nofollow&quot; target=&quot;_NEW&quot;&gt;\nhttp://leetleech.org/images/47010064397467695100.jpg&lt;/a&gt; &lt;a href=&quot;\nhttp://leetleech.org/images/81554863363387298360.jpg&quot; rel=&quot;nofollow&quot; target=&quot;_NEW&quot;&gt;\nhttp://leetleech.org/images/81554863363387298360.jpg&lt;/a&gt; &lt;a href=&quot;\nhttp://leetleech.org/images/09638449386679511545.jpg&quot; rel=&quot;nofollow&quot; target=&quot;_NEW&quot;&gt;\nhttp://leetleech.org/images/09638449386679511545.jpg&lt;/a&gt; &lt;a href=&quot;\nhttp://leetleech.org/images/55086341332259596592.jpg&quot; rel=&quot;nofollow&quot; target=&quot;_NEW&quot;&gt;\nhttp://leetleech.org/images/55086341332259596592.jpg&lt;/a&gt;\n\nAlternative: &lt;a href=&quot;\nhttp://www.postimg.com/image/26000/25380.jpg&quot; rel=&quot;nofollow&quot; target=&quot;_NEW&quot;&gt;\nhttp://www.postimg.com/image/26000/25380.jpg&lt;/a&gt; &lt;a href=&quot;\nhttp://www.postimg.com/image/26000/25376.jpg&quot; rel=&quot;nofollow&quot; target=&quot;_NEW&quot;&gt;\nhttp://www.postimg.com/image/26000/25376.jpg&lt;/a&gt; &lt;a href=&quot;\nhttp://www.postimg.com/image/26000/25377.jpg&quot; rel=&quot;nofollow&quot; target=&quot;_NEW&quot;&gt;\nhttp://www.postimg.com/image/26000/25377.jpg&lt;/a&gt; &lt;a href=&quot;\nhttp://www.postimg.com/image/26000/25378.jpg&quot; rel=&quot;nofollow&quot; target=&quot;_NEW&quot;&gt;\nhttp://www.postimg.com/image/26000/25378.jpg&lt;/a&gt;\n\nScreenCaps: &lt;a href=&quot;\nhttp://www.postimg.com/26000/25379.jpg&quot; rel=&quot;nofollow&quot; target=&quot;_NEW&quot;&gt;\nhttp://www.postimg.com/26000/25379.jpg&lt;/a&gt;\n\nFormat                           : AVI\nFormat/Info                      : Audio Video Interleave\nFormat profile                   : OpenDML\nFile size                        : 1.23 GiB\nDuration                         : 1h 36mn\nOverall bit rate                 : 1 816 Kbps\nWriting application              : VirtualDubMod 1.5.10.2 (build 2542/release)\nWriting library                  : VirtualDubMod build 2542/release\nOriginal source form             : MAX TORRENTZ\nCopyright                        : SIGISMUNT\n\nVideo\nID                               : 0\nFormat                           : MPEG-4 Visual\nFormat profile                   : AdvancedSimple@L5\nFormat settings, BVOP            : Yes\nFormat settings, QPel            : No\nFormat settings, GMC             : No warppoints\nFormat settings, Matrix          : Custom\nCodec ID                         : XVID\nCodec ID/Hint                    : XviD\nDuration                         : 1h 36mn\nBit rate                         : 1 619 Kbps\nWidth                            : 720 pixels\nHeight                           : 304 pixels\nDisplay aspect ratio             : 2.35:1\nFrame rate                       : 23.976 fps\nResolution                       : 24 bits\nColorimetry                      : 4:2:0\nScan type                        : Progressive\nBits/(Pixel*Frame)               : 0.308\nStream size                      : 1.09 GiB (89%)\nWriting library                  : XviD 1.2.1 (UTC 2008-12-04)\n\nAudio\nID                               : 1\nFormat                           : AC-3\nFormat/Info                      : Audio Coding 3\nCodec ID                         : 2000\nDuration                         : 1h 36mn\nBit rate mode                    : Constant\nBit rate                         : 192 Kbps\nChannel(s)                       : 2 channels\nChannel positions                : L R\nSampling rate                    : 48.0 KHz\nStream size                      : 133 MiB (11%)\nAlignment                        : Aligned on interleaves\nInterleave, duration             : 64 ms (1.53 video frames)\nInterleave, preload duration     : 192 ms\n \nSources:Original DVD+AC3 audio(perfect sync,video have very few and small pixelated \nareas but it's not a big deal,at least it's not same as boarded and shaking source) , sample is included &lt;a href=&quot;\nhttp://www.imdb.com/title/tt1219342/&quot; rel=&quot;nofollow&quot; target=&quot;_NEW&quot;&gt;\nhttp://www.imdb.com/title/tt1219342/&lt;/a&gt;\n\nLegend of the Guardians (2010) DVDRip XviD-MAX Torrent Free Download &lt;a href=&quot;\nhttp://thepiratebay.se/user/extremezone/0/7&quot; rel=&quot;nofollow&quot; target=&quot;_NEW&quot;&gt;\nhttp://thepiratebay.se/user/extremezone/0/7&lt;/a&gt;\n\nHow To Get Your Maxspeed (uTorrent)\n\nTorrent Client - Preferences - Bandwidth - Number of connections - Set aprox. 500 for each \nTorrent Client - Preferences - BiTorrent - Protocol Encryption - Forced\nBandwidth Allocation - High (Set download/upload limit - Unlimited)\nStop Other Active Torrents - Start downloading and wait for connections.\nEnjoy and Seed for at least 1:1 ratio. Don't forget to say thanks/leave reviews.\nGreets to all actual/future p2p/scene QUALITY groups and affiliate websites.\nDon't trust IMDb robot or bad ratings,always watch some trailers first.\nIgnore stupid comments/fake/mislabeled/no-DVDrips/CAM/TS/RAR uploads.\nPlease spread this release/torrent to your friends/forums/etc.\nIf you need translation subs visit some subtitles sites.\nReport if you see online streaming or other spam links.\nRecommended movie player VLC PLAYER.\n\n","torrent":{"xt":"urn:btih:f57fd4ebcea45cd1460191ef9c14896fcbb4b993","amp;dn":"Legend+of+the+Guardians+%282010%29+DVDRip+XviD-MAX","amp;tr":["udp%3A%2F%2Ftracker.openbittorrent.com%3A80","udp%3A%2F%2Fopen.demonii.com%3A1337","udp%3A%2F%2Ftracker.coppersurfer.tk%3A6969","udp%3A%2F%2Fexodus.desync.com%3A6969"],"infoHash":"f57fd4ebcea45cd1460191ef9c14896fcbb4b993","infoHashBuffer":{"type":"Buffer","data":[245,127,212,235,206,164,92,209,70,1,145,239,156,20,137,111,203,180,185,147]},"announce":[],"urlList":[]}}